<svg width="374" height="80" viewBox="0 0 374 80" fill="none" xmlns="http://www.w3.org/2000/svg">
<path d="M70.86 24C70.86 10.69 60.06 0 46.86 0H6.31995C2.81995 0 0 2.84031 0 6.32031C0 12.8003 13.71 17.71 13.71 40C13.71 62.29 0 67.2102 0 73.6802C0 77.1602 2.81995 80 6.31995 80H46.86C60.06 80 70.86 69.31 70.86 56C70.86 46.22 64.98 40.25 64.75 40C64.98 39.75 70.86 33.78 70.86 24ZM8.37 6.86035H46.87C51.45 6.86035 55.75 8.64037 58.99 11.8804C62.23 15.1204 64.01 19.42 64.01 24C64.01 28.58 62.3199 32.62 59.3199 35.79L8.37 6.86035ZM58.99 68.1304C55.75 71.3704 51.45 73.1504 46.87 73.1504H8.37L59.3199 44.2202C62.3199 47.3902 64.01 51.5703 64.01 56.0103C64.01 60.4503 62.23 64.8904 58.99 68.1304ZM15.83 61.02C16.24 60.17 20.58 51.74 20.58 40C20.58 28.26 16.24 19.83 15.83 18.98L52.85 40L15.83 61.02Z" fill="white"/>
<path d="M120.08 29.3403C130.47 29.3403 136.33 37.6302 136.33 47.6802C136.33 57.7302 130.46 65.96 120.08 65.96C114.69 65.96 110.57 63.8002 108.28 60.1602L107.34 65.1504H100.86V16.9204H108.88V34.7402C110.84 31.7702 114.68 29.3501 120.07 29.3501L120.08 29.3403ZM118.47 58.8804C124.54 58.8804 128.32 53.9599 128.32 47.6899C128.32 41.4199 124.54 36.4302 118.47 36.4302C112.4 36.4302 108.62 41.2899 108.62 47.6899C108.62 54.0899 112.33 58.8804 118.47 58.8804Z" fill="white"/>
<path d="M164.59 50.7202V30.1504H172.61V50.3101C172.61 59.2801 168.5 65.96 157.17 65.96C145.84 65.96 141.73 59.2801 141.73 50.3101V30.1504H149.76V50.7202C149.76 56.1802 152.32 58.8804 157.18 58.8804C162.04 58.8804 164.6 56.1802 164.6 50.7202H164.59Z" fill="white"/>
<path d="M179.04 19.3604C179.04 16.2404 181.24 14.0503 184.35 14.0503C187.46 14.0503 189.59 16.2504 189.59 19.3604C189.59 22.4704 187.39 24.5303 184.35 24.5303C181.31 24.5303 179.04 22.4004 179.04 19.3604Z" fill="white"/>
<path d="M322.21 19.3604C322.21 16.2404 324.41 14.0503 327.52 14.0503C330.63 14.0503 332.76 16.2504 332.76 19.3604C332.76 22.4704 330.56 24.5303 327.52 24.5303C324.48 24.5303 322.21 22.4004 322.21 19.3604Z" fill="white"/>
<path d="M306.77 60.2603C306.77 57.1403 308.97 54.9502 312.08 54.9502C315.19 54.9502 317.32 57.1503 317.32 60.2603C317.32 63.3703 315.12 65.4302 312.08 65.4302C309.04 65.4302 306.77 63.3003 306.77 60.2603Z" fill="white"/>
<path d="M188.33 30.1504H180.31V65.1504H188.33V30.1504Z" fill="white"/>
<path d="M196.36 65.1504V16.9204H204.38V65.1504H196.36Z" fill="white"/>
<path d="M237.49 16.9204H245.51V65.1504H239.03L238.09 60.1602C235.86 63.8002 231.75 65.96 226.29 65.96C215.97 65.96 210.11 57.6702 210.11 47.6802C210.11 37.6902 215.98 29.3403 226.29 29.3403C231.75 29.3403 235.53 31.77 237.48 34.73V16.9102L237.49 16.9204ZM227.98 36.4204C221.91 36.4204 218.13 41.2802 218.13 47.6802C218.13 54.0802 221.91 58.8701 227.98 58.8701C234.05 58.8701 237.83 53.9502 237.83 47.6802C237.83 41.4102 234.12 36.4204 227.98 36.4204Z" fill="white"/>
<path d="M284.7 55.5703C282.2 61.8403 276.41 65.96 268.78 65.96C258.19 65.96 251.31 58.0701 251.31 47.6201C251.31 37.1701 258.32 29.3403 268.71 29.3403C279.1 29.3403 285.91 37.23 285.91 47.48C285.91 48.76 285.85 49.2402 285.7 49.9702H259.21C259.82 55.5002 263.39 59.0703 268.99 59.0703C272.83 59.0703 276 57.1802 277.49 53.6802L284.71 55.5703H284.7ZM259.34 44.04H277.95C277.28 39.18 273.9 35.8804 268.71 35.8804C263.52 35.8804 260.15 39.25 259.34 44.04Z" fill="white"/>
<path d="M310.46 37.3701C310.46 37.3701 309.52 37.2402 308.64 37.2402C302.98 37.2402 299.6 40.2102 299.6 46.9502V65.1602H291.58V30.1602H298.06L299 35.02C300.28 32.79 303.25 29.8301 309.32 29.8301C309.66 29.8301 310.47 29.9004 310.47 29.9004V37.3901L310.46 37.3701Z" fill="white"/>
<path d="M331.5 30.1504H323.48V65.1504H331.5V30.1504Z" fill="white"/>
<path d="M337.23 47.6802C337.23 37.8302 344.24 29.3403 355.37 29.3403C366.5 29.3403 373.58 37.8402 373.58 47.6802C373.58 57.5202 366.57 65.96 355.37 65.96C344.17 65.96 337.23 57.5302 337.23 47.6802ZM355.37 58.8804C361.24 58.8804 365.55 54.4299 365.55 47.6899C365.55 40.9499 361.23 36.4302 355.37 36.4302C349.51 36.4302 345.25 40.8799 345.25 47.6899C345.25 54.4999 349.57 58.8804 355.37 58.8804Z" fill="white"/>
</svg>
